{
	"asset":{
		"generator":"Khronos glTF Blender I/O v4.1.63",
		"version":"2.0"
	},
	"extensionsUsed":[
		"KHR_materials_clearcoat",
		"KHR_lights_punctual"
	],
	"extensionsRequired":[
		"KHR_lights_punctual"
	],
	"extensions":{
		"KHR_lights_punctual":{
			"lights":[
				{
					"color":[
						1,
						0.6795432567596436,
						0
					],
					"intensity":271757.0653294113,
					"type":"point",
					"name":"Light.001"
				},
				{
					"color":[
						1,
						1,
						1
					],
					"intensity":54351.41306588226,
					"type":"point",
					"name":"Point"
				},
				{
					"color":[
						1,
						0.6795432567596436,
						0
					],
					"intensity":271757.0653294113,
					"type":"point",
					"name":"Light.003"
				},
				{
					"color":[
						1,
						0.6795432567596436,
						0
					],
					"intensity":271757.0653294113,
					"type":"point",
					"name":"Light.004"
				},
				{
					"color":[
						1,
						0.6795432567596436,
						0
					],
					"intensity":163054.2391976468,
					"type":"point",
					"name":"Light.005"
				}
			]
		}
	},
	"scene":0,
	"scenes":[
		{
			"name":"Scene",
			"nodes":[
				4,
				5,
				6,
				7,
				8,
				9,
				10,
				11,
				12,
				13,
				14,
				15,
				16,
				17,
				18,
				19,
				20
			]
		}
	],
	"nodes":[
		{
			"mesh":0,
			"name":"Cube__0",
			"translation":[
				0,
				0,
				3.6434261798858643
			]
		},
		{
			"children":[
				0
			],
			"name":"Cube.001",
			"rotation":[
				-0.70710688829422,
				0,
				0,
				0.7071066498756409
			],
			"scale":[
				259.0821838378906,
				99.99999237060547,
				46.606781005859375
			]
		},
		{
			"children":[
				1
			],
			"name":"RootNode"
		},
		{
			"children":[
				2
			],
			"name":"5deed54f4ccc4e198d43f5ec83026504.fbx",
			"rotation":[
				0.70710688829422,
				0,
				0,
				0.7071066498756409
			],
			"scale":[
				0.009999999776482582,
				0.010000000707805157,
				0.010000000707805157
			]
		},
		{
			"children":[
				3
			],
			"name":"Sketchfab_model",
			"rotation":[
				-0.70710688829422,
				0,
				0,
				0.7071066498756409
			]
		},
		{
			"extensions":{
				"KHR_lights_punctual":{
					"light":0
				}
			},
			"name":"Light",
			"rotation":[
				-0.28416627645492554,
				0.7269423007965088,
				0.34203392267227173,
				0.5232754945755005
			],
			"translation":[
				0.9090477228164673,
				5.160210609436035,
				-0.5385069847106934
			]
		},
		{
			"extensions":{
				"KHR_lights_punctual":{
					"light":1
				}
			},
			"name":"Point",
			"rotation":[
				-0.7071068286895752,
				0,
				0,
				0.7071068286895752
			],
			"translation":[
				-0.3960258364677429,
				3.3428726196289062,
				0
			]
		},
		{
			"mesh":1,
			"name":"Text",
			"rotation":[
				0.4182400107383728,
				0.4528755247592926,
				-0.5412756204605103,
				0.5718390345573425
			],
			"scale":[
				0.9825884103775024,
				0.9825884103775024,
				0.9825884103775024
			],
			"translation":[
				0.46314918994903564,
				3.5970382690429688,
				0.04265528917312622
			]
		},
		{
			"mesh":2,
			"name":"Text.001",
			"rotation":[
				0.42972517013549805,
				0.4681450426578522,
				-0.5308241248130798,
				0.5607158541679382
			],
			"scale":[
				0.8753871917724609,
				0.8753872513771057,
				0.8753872513771057
			],
			"translation":[
				0.55838543176651,
				2.3375132083892822,
				0.2327853888273239
			]
		},
		{
			"extensions":{
				"KHR_lights_punctual":{
					"light":0
				}
			},
			"name":"Light.001",
			"rotation":[
				-0.28416627645492554,
				0.7269423007965088,
				0.34203392267227173,
				0.5232754945755005
			],
			"translation":[
				-1.6039859056472778,
				4.125973701477051,
				-0.5574698448181152
			]
		},
		{
			"extensions":{
				"KHR_lights_punctual":{
					"light":0
				}
			},
			"name":"Light.002",
			"rotation":[
				-0.28416627645492554,
				0.7269423007965088,
				0.34203392267227173,
				0.5232754945755005
			],
			"translation":[
				-1.63713538646698,
				0.8471360206604004,
				0.5369750261306763
			]
		},
		{
			"extensions":{
				"KHR_lights_punctual":{
					"light":0
				}
			},
			"name":"Light.003",
			"rotation":[
				-0.28416627645492554,
				0.7269423007965088,
				0.34203392267227173,
				0.5232754945755005
			],
			"translation":[
				0.321327269077301,
				-0.6975502967834473,
				0.9907330274581909
			]
		},
		{
			"extensions":{
				"KHR_lights_punctual":{
					"light":0
				}
			},
			"name":"Light.004",
			"rotation":[
				-0.28416627645492554,
				0.7269423007965088,
				0.34203392267227173,
				0.5232754945755005
			],
			"translation":[
				0.04319000244140625,
				4.392349720001221,
				1.6510159969329834
			]
		},
		{
			"extensions":{
				"KHR_lights_punctual":{
					"light":0
				}
			},
			"name":"Light.005",
			"rotation":[
				-0.28416627645492554,
				0.7269423007965088,
				0.34203392267227173,
				0.5232754945755005
			],
			"translation":[
				-0.22437509894371033,
				5.878309726715088,
				-0.8872382640838623
			]
		},
		{
			"extensions":{
				"KHR_lights_punctual":{
					"light":0
				}
			},
			"name":"Light.006",
			"rotation":[
				-0.28416627645492554,
				0.7269423007965088,
				0.34203392267227173,
				0.5232754945755005
			],
			"translation":[
				0.6405948400497437,
				0.22298449277877808,
				-1.76972234249115
			]
		},
		{
			"extensions":{
				"KHR_lights_punctual":{
					"light":0
				}
			},
			"name":"Light.007",
			"rotation":[
				-0.28416627645492554,
				0.7269423007965088,
				0.34203392267227173,
				0.5232754945755005
			],
			"translation":[
				1.9626173973083496,
				0.3583498001098633,
				1.233922004699707
			]
		},
		{
			"extensions":{
				"KHR_lights_punctual":{
					"light":0
				}
			},
			"name":"Light.008",
			"rotation":[
				-0.28416627645492554,
				0.7269423007965088,
				0.34203392267227173,
				0.5232754945755005
			],
			"translation":[
				0.1284998655319214,
				1.1302136182785034,
				1.8890674114227295
			]
		},
		{
			"extensions":{
				"KHR_lights_punctual":{
					"light":2
				}
			},
			"name":"Light.009",
			"rotation":[
				-0.28416627645492554,
				0.7269423007965088,
				0.34203392267227173,
				0.5232754945755005
			],
			"translation":[
				-0.2534915804862976,
				3.6072983741760254,
				-2.3094375133514404
			]
		},
		{
			"extensions":{
				"KHR_lights_punctual":{
					"light":3
				}
			},
			"name":"Light.010",
			"rotation":[
				-0.28416627645492554,
				0.7269423007965088,
				0.34203392267227173,
				0.5232754945755005
			],
			"translation":[
				0.9090477228164673,
				3.68446683883667,
				0.8282490372657776
			]
		},
		{
			"extensions":{
				"KHR_lights_punctual":{
					"light":4
				}
			},
			"name":"Light.011",
			"rotation":[
				-0.28416627645492554,
				0.7269423007965088,
				0.34203392267227173,
				0.5232754945755005
			],
			"translation":[
				0.9090477228164673,
				2.5239951610565186,
				-0.9378855228424072
			]
		},
		{
			"mesh":3,
			"name":"Text.002",
			"rotation":[
				0.4182400107383728,
				0.4528755247592926,
				-0.5412756204605103,
				0.5718390345573425
			],
			"scale":[
				0.9825884103775024,
				0.9825884103775024,
				0.9825884103775024
			],
			"translation":[
				0.6611179709434509,
				1.140726089477539,
				0.4362761378288269
			]
		}
	],
	"materials":[
		{
			"doubleSided":true,
			"extensions":{
				"KHR_materials_clearcoat":{
					"clearcoatFactor":0.1476440727710724,
					"clearcoatRoughnessFactor":0.6462516188621521
				}
			},
			"name":"Scene_-_Root",
			"pbrMetallicRoughness":{
				"roughnessFactor":0.9015756845474243
			}
		},
		{
			"doubleSided":true,
			"name":"Material",
			"pbrMetallicRoughness":{
				"baseColorFactor":[
					0.8012049198150635,
					0.5361940860748291,
					0,
					1
				],
				"metallicFactor":0,
				"roughnessFactor":0.5
			}
		}
	],
	"meshes":[
		{
			"name":"Cube__0",
			"primitives":[
				{
					"attributes":{
						"POSITION":0,
						"NORMAL":1,
						"TEXCOORD_0":2,
						"TANGENT":3
					},
					"indices":4,
					"material":0
				}
			]
		},
		{
			"name":"Text.001",
			"primitives":[
				{
					"attributes":{
						"POSITION":5,
						"NORMAL":6,
						"TEXCOORD_0":7,
						"TANGENT":8
					},
					"indices":9,
					"material":1
				}
			]
		},
		{
			"name":"Text.003",
			"primitives":[
				{
					"attributes":{
						"POSITION":10,
						"NORMAL":11,
						"TEXCOORD_0":12,
						"TANGENT":13
					},
					"indices":14,
					"material":1
				}
			]
		},
		{
			"name":"Text.002",
			"primitives":[
				{
					"attributes":{
						"POSITION":15,
						"NORMAL":16,
						"TEXCOORD_0":17,
						"TANGENT":18
					},
					"indices":9,
					"material":1
				}
			]
		}
	],
	"accessors":[
		{
			"bufferView":0,
			"componentType":5126,
			"count":296,
			"max":[
				0.254574716091156,
				1.3476418256759644,
				7.418505668640137
			],
			"min":[
				-0.24484509229660034,
				-1.3403034210205078,
				-3.967264413833618
			],
			"type":"VEC3"
		},
		{
			"bufferView":1,
			"componentType":5126,
			"count":296,
			"type":"VEC3"
		},
		{
			"bufferView":2,
			"componentType":5126,
			"count":296,
			"type":"VEC2"
		},
		{
			"bufferView":3,
			"componentType":5126,
			"count":296,
			"type":"VEC4"
		},
		{
			"bufferView":4,
			"componentType":5123,
			"count":1290,
			"type":"SCALAR"
		},
		{
			"bufferView":5,
			"componentType":5126,
			"count":2226,
			"max":[
				0.3507142961025238,
				0.05000000074505806,
				0.009999999776482582
			],
			"min":[
				0.044999998062849045,
				-0.05000000074505806,
				-0.5135714411735535
			],
			"type":"VEC3"
		},
		{
			"bufferView":6,
			"componentType":5126,
			"count":2226,
			"type":"VEC3"
		},
		{
			"bufferView":7,
			"componentType":5126,
			"count":2226,
			"type":"VEC2"
		},
		{
			"bufferView":8,
			"componentType":5126,
			"count":2226,
			"type":"VEC4"
		},
		{
			"bufferView":9,
			"componentType":5123,
			"count":6660,
			"type":"SCALAR"
		},
		{
			"bufferView":10,
			"componentType":5126,
			"count":1474,
			"max":[
				0.4228571355342865,
				0.05000000074505806,
				0
			],
			"min":[
				0.020714284852147102,
				-0.05000000074505806,
				-0.5057142972946167
			],
			"type":"VEC3"
		},
		{
			"bufferView":11,
			"componentType":5126,
			"count":1474,
			"type":"VEC3"
		},
		{
			"bufferView":12,
			"componentType":5126,
			"count":1474,
			"type":"VEC2"
		},
		{
			"bufferView":13,
			"componentType":5126,
			"count":1474,
			"type":"VEC4"
		},
		{
			"bufferView":14,
			"componentType":5123,
			"count":4404,
			"type":"SCALAR"
		},
		{
			"bufferView":15,
			"componentType":5126,
			"count":2226,
			"max":[
				0.3507142961025238,
				0.04999999701976776,
				0.009999999776482582
			],
			"min":[
				0.044999998062849045,
				-0.04999999701976776,
				-0.5135714411735535
			],
			"type":"VEC3"
		},
		{
			"bufferView":16,
			"componentType":5126,
			"count":2226,
			"type":"VEC3"
		},
		{
			"bufferView":17,
			"componentType":5126,
			"count":2226,
			"type":"VEC2"
		},
		{
			"bufferView":18,
			"componentType":5126,
			"count":2226,
			"type":"VEC4"
		}
	],
	"bufferViews":[
		{
			"buffer":0,
			"byteLength":3552,
			"byteOffset":0,
			"target":34962
		},
		{
			"buffer":0,
			"byteLength":3552,
			"byteOffset":3552,
			"target":34962
		},
		{
			"buffer":0,
			"byteLength":2368,
			"byteOffset":7104,
			"target":34962
		},
		{
			"buffer":0,
			"byteLength":4736,
			"byteOffset":9472,
			"target":34962
		},
		{
			"buffer":0,
			"byteLength":2580,
			"byteOffset":14208,
			"target":34963
		},
		{
			"buffer":0,
			"byteLength":26712,
			"byteOffset":16788,
			"target":34962
		},
		{
			"buffer":0,
			"byteLength":26712,
			"byteOffset":43500,
			"target":34962
		},
		{
			"buffer":0,
			"byteLength":17808,
			"byteOffset":70212,
			"target":34962
		},
		{
			"buffer":0,
			"byteLength":35616,
			"byteOffset":88020,
			"target":34962
		},
		{
			"buffer":0,
			"byteLength":13320,
			"byteOffset":123636,
			"target":34963
		},
		{
			"buffer":0,
			"byteLength":17688,
			"byteOffset":136956,
			"target":34962
		},
		{
			"buffer":0,
			"byteLength":17688,
			"byteOffset":154644,
			"target":34962
		},
		{
			"buffer":0,
			"byteLength":11792,
			"byteOffset":172332,
			"target":34962
		},
		{
			"buffer":0,
			"byteLength":23584,
			"byteOffset":184124,
			"target":34962
		},
		{
			"buffer":0,
			"byteLength":8808,
			"byteOffset":207708,
			"target":34963
		},
		{
			"buffer":0,
			"byteLength":26712,
			"byteOffset":216516,
			"target":34962
		},
		{
			"buffer":0,
			"byteLength":26712,
			"byteOffset":243228,
			"target":34962
		},
		{
			"buffer":0,
			"byteLength":17808,
			"byteOffset":269940,
			"target":34962
		},
		{
			"buffer":0,
			"byteLength":35616,
			"byteOffset":287748,
			"target":34962
		}
	],
	"buffers":[
		{
			"byteLength":323364,
			"uri":"test2.bin"
		}
	]
}
